<?xml version="1.0" encoding="utf-8"?>
<!-- Generator: Adobe Illustrator 17.0.0, SVG Export Plug-In . SVG Version: 6.00 Build 0)  -->
<!DOCTYPE svg PUBLIC "-//W3C//DTD SVG 1.1//EN" "http://www.w3.org/Graphics/SVG/1.1/DTD/svg11.dtd">
<svg version="1.1" id="Isolation_Mode" xmlns="http://www.w3.org/2000/svg" xmlns:xlink="http://www.w3.org/1999/xlink" x="0px"
	 y="0px" width="138px" height="60px" viewBox="0 0 138 60" enable-background="new 0 0 138 60" xml:space="preserve">
<g>
	<path fill="#FFFFFF" d="M52.377,46.675c-2.751,0-5.219-0.461-7.335-1.368c-2.123-0.914-3.932-2.171-5.377-3.739
		c-1.449-1.572-2.565-3.439-3.315-5.548c-0.751-2.109-1.132-4.392-1.132-6.783c0-2.391,0.381-4.674,1.132-6.783
		c0.748-2.107,1.863-3.975,3.315-5.55c1.446-1.568,3.256-2.836,5.379-3.77c2.119-0.929,4.586-1.4,7.334-1.4
		c2.75,0,5.217,0.471,7.333,1.402c2.118,0.93,3.928,2.198,5.38,3.768c1.452,1.578,2.567,3.446,3.316,5.55
		c0.751,2.109,1.13,4.392,1.13,6.783c0,2.391-0.379,4.673-1.13,6.783c-0.749,2.105-1.864,3.972-3.316,5.548
		c-1.453,1.572-3.262,2.829-5.379,3.738C57.596,46.215,55.128,46.675,52.377,46.675L52.377,46.675z M52.377,14.985
		c-2.145,0-4.059,0.418-5.684,1.243c-1.614,0.82-2.974,1.915-4.044,3.252c-1.068,1.339-1.883,2.874-2.421,4.56
		c-0.543,1.695-0.818,3.442-0.818,5.197c0,1.754,0.275,3.503,0.817,5.196c0.541,1.694,1.356,3.228,2.422,4.561
		c1.065,1.335,2.426,2.429,4.044,3.252c1.625,0.824,3.538,1.243,5.684,1.243c2.147,0,4.06-0.419,5.682-1.243
		c1.614-0.821,2.976-1.915,4.047-3.253c1.061-1.326,1.875-2.862,2.422-4.56c0.542-1.69,0.816-3.438,0.816-5.196
		c0-1.758-0.274-3.506-0.816-5.196c-0.546-1.698-1.361-3.233-2.422-4.562c-1.072-1.338-2.434-2.433-4.047-3.252
		C56.433,15.403,54.521,14.985,52.377,14.985L52.377,14.985z"/>
	<path fill="#FFFFFF" d="M7.431,19.48c1.067-1.336,2.429-2.429,4.046-3.252c1.627-0.825,3.537-1.243,5.682-1.243
		c3.008,0,5.381,0.728,7.057,2.163c0.953,0.816,1.739,1.823,2.354,3.003h0.008c0.117,0.275,0.259,0.531,0.429,0.762
		c0.368,0.503,0.874,0.882,1.539,1.152c0.212,0.088,0.457,0.158,0.794,0.23c0,0,0.418,0.126,1.578,0.126c0.42,0,0.583,0,0.583,0
		s0.077-0.557-0.337-2.27l-0.004-0.002c-0.812-2.374-2.198-4.256-4.142-5.609c-2.678-1.86-5.996-2.804-9.861-2.804
		c-2.749,0-5.215,0.471-7.331,1.4c-2.123,0.934-3.933,2.202-5.38,3.771c-1.453,1.577-2.569,3.445-3.316,5.549
		C0.381,24.564,0,26.846,0,29.238c0,2.391,0.381,4.674,1.132,6.783c0.75,2.109,1.865,3.976,3.316,5.548
		c1.446,1.57,3.254,2.827,5.377,3.738c2.118,0.908,4.586,1.369,7.335,1.369c4.095,0,7.493-1.125,10.1-3.345
		c1.389-1.184,2.503-2.63,3.334-4.328l0,0c0.396-0.746,0.567-1.745,0.567-1.745s-0.642-0.001-1.063-0.001
		c-1.159,0-1.578,0.125-1.578,0.125c-0.338,0.072-0.581,0.142-0.794,0.231c-0.667,0.271-1.171,0.647-1.539,1.152
		c-0.056,0.075-0.103,0.158-0.153,0.238h-0.007c-0.467,0.655-0.998,1.25-1.591,1.775c-0.955,0.846-2.067,1.515-3.304,1.99
		c-1.245,0.479-2.58,0.723-3.97,0.723c-2.147,0-4.057-0.419-5.681-1.243c-1.616-0.82-2.977-1.915-4.046-3.252
		C6.365,37.66,5.55,36.124,5.01,34.434c-0.542-1.686-0.817-3.435-0.817-5.196c0-1.761,0.275-3.51,0.817-5.197
		C5.55,22.353,6.365,20.817,7.431,19.48z"/>
	<path fill="#FFFFFF" d="M137.991,12.909v3.142c0,0,0.866,13.804-14.419,14.152c-2.649,0.062-2.651,0-2.651,0V19.504
		c0,0,0.166-6.595,6.611-6.595C133.98,12.909,137.991,12.909,137.991,12.909z"/>
	<path fill="#FFFFFF" d="M114.91,21.669c-0.076-1.916-0.473-3.512-1.184-4.745c-0.796-1.378-1.832-2.46-3.079-3.217
		c-1.254-0.759-2.689-1.283-4.268-1.556c-1.588-0.276-3.2-0.416-4.787-0.416c-2.1,0-4.041,0.214-5.766,0.637
		c-1.724,0.425-3.245,1.09-4.519,1.974c-1.279,0.886-2.305,2.046-3.052,3.447c-0.154,0.29-0.31,0.623-0.44,0.938
		c-0.007,0.014,0,0-0.005,0.015c-0.364,1.024-0.813,2.818-0.899,3.97c3.48,0,4.518-2.277,4.608-2.491l0.002,0.002
		c0.454-1.441,1.276-2.572,2.456-3.376c1.818-1.238,4.189-1.865,7.047-1.865c1.326,0,2.59,0.099,3.756,0.295
		c1.165,0.192,2.211,0.557,3.107,1.083c0.888,0.523,1.592,1.241,2.095,2.13c0.499,0.886,0.751,2.031,0.751,3.403l-0.014,6.008
		c0.004-0.002,0.009-0.004,0.014-0.006v5.077c0,1.63-0.349,3.11-1.034,4.398c-0.689,1.297-1.628,2.411-2.791,3.315
		c-1.164,0.907-2.551,1.61-4.124,2.086c-1.572,0.476-3.237,0.718-4.95,0.718c-1.055,0-2.097-0.155-3.103-0.46
		c-0.999-0.302-1.899-0.753-2.672-1.345c-0.765-0.588-1.383-1.291-1.833-2.089c-0.451-0.799-0.68-1.726-0.68-2.759
		c0-1.636,0.547-2.919,1.623-3.812c1.077-0.891,2.467-1.582,4.132-2.059c1.664-0.473,3.522-0.833,5.526-1.067
		c0.76-0.091,1.515-0.186,2.265-0.286v0c0.499-0.06,1.069-0.124,1.645-0.229c0.074-0.011,0.149-0.021,0.221-0.032v-0.011
		c1.763-0.357,3.524-1.153,3.524-3.501c-1.111,0.318-2.164,0.474-5.39,0.837c-1.855,0.205-3.646,0.409-5.34,0.611
		c-2.316,0.277-4.424,0.762-6.265,1.441c-1.833,0.675-3.33,1.669-4.445,2.958c-1.119,1.291-1.687,3.11-1.687,5.41
		c0,1.66,0.321,3.116,0.951,4.326c0.632,1.211,1.505,2.218,2.595,2.995c1.085,0.778,2.376,1.356,3.841,1.716
		c1.476,0.358,3.071,0.54,4.74,0.54c1.77,0,3.317-0.151,4.599-0.446c1.278-0.296,2.433-0.723,3.433-1.272
		c1.069-0.587,2.264-1.35,3.117-1.993c0.374-0.282,1.467-1.135,2.458-2.204v0.286c0,0.86,0.059,1.649,0.176,2.344
		c0.113,0.696,0.359,1.307,0.733,1.812c0.368,0.504,0.873,0.881,1.539,1.152c0.212,0.087,0.457,0.159,0.794,0.23l0.58,0.125V21.669z
		"/>
	<path fill="#FFFFFF" d="M78.696,7.207c0.047-0.777,0.228-1.466,0.54-2.047c0.314-0.593,0.819-1.074,1.499-1.428
		c0.413-0.214,0.931-0.355,1.543-0.439l0.071-0.011c1.399-0.225,4.434,0.011,4.429-3.245c-2.492-0.095-3.09-0.083-4.54-0.049
		c-0.033,0-0.346,0.016-0.377,0.024c-1.189,0.088-2.227,0.29-3.062,0.631c-1.131,0.461-2.03,1.12-2.677,1.96
		c-0.653,0.847-1.102,1.88-1.335,3.068c-0.234,1.186-0.353,2.506-0.353,3.921v3.11h-3.269v3.744h3.269v30.338l0.519-0.042
		c1.906-0.152,3.429-1.658,3.641-3.515h0.033V16.445h3.416c0,0,3.81,0.061,3.813-3.744h-3.813h-3.416V9.721
		C78.627,8.815,78.65,7.969,78.696,7.207z"/>
	<g>
		<path fill="#FFFFFF" d="M74.861,53.603h0.697v1.042h0.036c0.396-0.742,1.045-1.222,2.03-1.222c0.817,0,1.55,0.395,1.778,1.209
			c0.372-0.814,1.153-1.209,1.971-1.209c1.357,0,2.053,0.707,2.053,2.168v4.192h-0.756v-4.156c0-1.018-0.385-1.569-1.465-1.569
			c-1.31,0-1.682,1.077-1.682,2.228v3.497h-0.757v-4.192c0.012-0.838-0.336-1.533-1.297-1.533c-1.309,0-1.838,0.981-1.85,2.275v3.45
			h-0.757V53.603z"/>
		<path fill="#FFFFFF" d="M85.552,56.897c0.012,1.102,0.589,2.431,2.042,2.431c1.105,0,1.706-0.647,1.946-1.581h0.757
			c-0.325,1.401-1.141,2.215-2.703,2.215c-1.969,0-2.798-1.509-2.798-3.27c0-1.629,0.829-3.27,2.798-3.27
			c1.995,0,2.787,1.737,2.727,3.474H85.552z M89.564,56.262c-0.037-1.138-0.745-2.204-1.971-2.204c-1.237,0-1.922,1.077-2.042,2.204
			H89.564z"/>
		<path fill="#FFFFFF" d="M97.035,59.784h-0.697V58.61h-0.024c-0.325,0.803-1.31,1.353-2.21,1.353c-1.886,0-2.787-1.521-2.787-3.27
			c0-1.749,0.901-3.27,2.787-3.27c0.925,0,1.825,0.467,2.15,1.354h0.024v-3.546h0.757V59.784z M94.104,59.328
			c1.609,0,2.174-1.353,2.174-2.635c0-1.282-0.564-2.635-2.174-2.635c-1.441,0-2.03,1.353-2.03,2.635
			C92.074,57.975,92.663,59.328,94.104,59.328z"/>
		<path fill="#FFFFFF" d="M98.729,51.232h0.757v1.21h-0.757V51.232z M98.729,53.603h0.757v6.18h-0.757V53.603z"/>
		<path fill="#FFFFFF" d="M101.107,55.496c0.073-1.449,1.094-2.072,2.511-2.072c1.093,0,2.282,0.335,2.282,1.988v3.282
			c0,0.287,0.144,0.455,0.444,0.455c0.084,0,0.18-0.023,0.24-0.047v0.634c-0.168,0.037-0.288,0.048-0.492,0.048
			c-0.769,0-0.89-0.431-0.89-1.078h-0.023c-0.529,0.803-1.069,1.257-2.259,1.257c-1.14,0-2.078-0.563-2.078-1.808
			c0-1.737,1.693-1.797,3.327-1.988c0.625-0.072,0.972-0.156,0.972-0.838c0-1.018-0.733-1.269-1.622-1.269
			c-0.937,0-1.634,0.431-1.657,1.437H101.107z M105.143,56.406h-0.024c-0.096,0.18-0.432,0.24-0.637,0.276
			c-1.285,0.228-2.883,0.216-2.883,1.425c0,0.755,0.672,1.222,1.382,1.222c1.152,0,2.174-0.731,2.161-1.94V56.406z"/>
	</g>
	<g>
		<path fill="#FFFFFF" d="M108.444,56.668h0.416v3.116h-0.416V56.668z"/>
		<path fill="#FFFFFF" d="M109.499,57.527h0.35v0.358h0.008c0.158-0.279,0.411-0.411,0.735-0.411c0.596,0,0.779,0.341,0.779,0.825
			v1.484H111v-1.528c0-0.275-0.175-0.454-0.459-0.454c-0.451,0-0.67,0.302-0.67,0.707v1.275h-0.372V57.527z"/>
		<path fill="#FFFFFF" d="M113.471,58.251c-0.057-0.284-0.254-0.45-0.561-0.45c-0.538,0-0.705,0.424-0.705,0.882
			c0,0.415,0.189,0.825,0.661,0.825c0.359,0,0.574-0.209,0.622-0.55h0.38c-0.083,0.55-0.428,0.877-0.998,0.877
			c-0.691,0-1.059-0.48-1.059-1.152c0-0.676,0.351-1.209,1.068-1.209c0.512,0,0.923,0.241,0.976,0.777H113.471z"/>
		<path fill="#FFFFFF" d="M114.369,59.3h0.486v0.484h-0.486V59.3z"/>
	</g>
</g>
</svg>
